<mxfile host="app.diagrams.net" modified="2024-03-28T08:17:32.373Z" agent="Mozilla/5.0 (Windows NT 10.0; Win64; x64) AppleWebKit/537.36 (KHTML, like Gecko) Chrome/122.0.0.0 Safari/537.36" version="24.2.0" etag="XDA5atblLB05ZD256IBt" type="github">
  <diagram name="Page-1" id="BfMr2Q2rPeyoOMymcrxe">
    <mxGraphModel>
      <root>
        <mxCell id="0" />
        <mxCell id="1" parent="0" />
      </root>
    </mxGraphModel>
  </diagram>
</mxfile>
